<svg width="23" height="36" viewBox="0 0 23 36" fill="none" xmlns="http://www.w3.org/2000/svg">
<path d="M11.5 0.50293C17.5751 0.50293 22.5 5.4278 22.5 11.5029V24.5029C22.5 30.5781 17.5751 35.5029 11.5 35.5029C5.42487 35.5029 0.5 30.5781 0.5 24.5029V11.5029C0.5 5.4278 5.42487 0.50293 11.5 0.50293Z" stroke="#1F2025"/>
<path d="M22 11.5029C22 5.70394 17.299 1.00293 11.5 1.00293C5.70101 1.00293 1 5.70394 1 11.5029V24.5029C1 30.3019 5.70101 35.0029 11.5 35.0029C17.299 35.0029 22 30.3019 22 24.5029V11.5029Z" stroke="#1F2025" stroke-width="2"/>
<path d="M11.534 12.9689V24.5839" stroke="#1F2025" stroke-width="2"/>
</svg>
