<svg width="129" height="28" viewBox="0 0 129 28" fill="none" xmlns="http://www.w3.org/2000/svg">
<g clip-path="url(#clip0_391_3189)">
<path d="M28.7248 13.9869C28.7248 21.9272 22.476 27.9708 14.3624 27.9708C6.24879 27.9708 0 21.9272 0 13.9869C0 6.04656 6.24879 0.00292969 14.3624 0.00292969C22.476 0.00292969 28.7248 6.04656 28.7248 13.9869ZM6.73954 13.9869C6.73954 18.4874 9.94573 21.7343 14.3624 21.7343C18.7791 21.7343 21.9853 18.4874 21.9853 13.9869C21.9853 9.48628 18.7791 6.23944 14.3624 6.23944C9.94573 6.23944 6.73954 9.48628 6.73954 13.9869Z" fill="black"/>
<path d="M55.225 0.517273V16.4943C55.1922 24.1774 50.2521 28.0351 43.6434 28.0351C37.0348 28.0351 32.0946 24.1774 32.0946 16.4943V0.517273H38.8341V16.1085C38.8341 20.3519 40.7644 21.7664 43.6107 21.7664C46.457 21.7664 48.3873 20.3519 48.3873 16.1085V0.517273H55.1595H55.225Z" fill="black"/>
<path d="M79.4022 6.75378H71.9102V27.4886H65.2361V6.75378H57.7768V0.517273H79.4022V6.75378Z" fill="black"/>
<path d="M100.736 6.75378H93.244V27.4886H86.5698V6.75378H79.1105V0.517273H100.736V6.75378Z" fill="black"/>
<path d="M118.589 21.7351H108.316L106.353 27.3287H99.2865L109.232 0.357361H117.64L127.619 27.3608H120.552L118.589 21.7672V21.7351ZM116.397 15.4986L113.453 7.07608L110.508 15.4986H116.397Z" fill="black"/>
</g>
<defs>
<clipPath id="clip0_391_3189">
<rect width="129" height="28" fill="white" transform="translate(0 0.00292969)"/>
</clipPath>
</defs>
</svg>
