<svg viewBox="0 0 15 16" xmlns="http://www.w3.org/2000/svg">
  <path
    d="M1.47348 4.28414C1.25152 4.68082 1.125 5.13813 1.125 5.625V10.375C1.125 11.8938 2.35622 13.125 3.875 13.125H11.125C12.6438 13.125 13.875 11.8938 13.875 10.375V5.625C13.875 5.13813 13.7485 4.68082 13.5265 4.28414L13.6553 4.15533L12.5947 3.09467L12.4659 3.22348C12.0692 3.00152 11.6119 2.875 11.125 2.875H3.875C3.38813 2.875 2.93082 3.00152 2.53414 3.22348L2.40533 3.09467L1.34467 4.15533L1.47348 4.28414ZM2.63742 5.44808C2.62924 5.50588 2.625 5.56494 2.625 5.625V10.375C2.625 11.0654 3.18464 11.625 3.875 11.625H11.125C11.8154 11.625 12.375 11.0654 12.375 10.375V5.625C12.375 5.56494 12.3708 5.50588 12.3626 5.44808L9.44454 8.36612C8.3706 9.44006 6.6294 9.44006 5.55546 8.36612L2.63742 5.44808ZM11.3019 4.38742C11.2441 4.37924 11.1851 4.375 11.125 4.375H3.875C3.81494 4.375 3.75588 4.37924 3.69808 4.38742L6.61612 7.30546C7.10427 7.79361 7.89573 7.79361 8.38388 7.30546L11.3019 4.38742Z" />
</svg>