<svg width="25" height="25" viewBox="0 0 25 25" fill="none" xmlns="http://www.w3.org/2000/svg">
<g id="Icon / Filled/question">
<path id="Vector" fill-rule="evenodd" clip-rule="evenodd" d="M21.5 12.5C21.5 17.4706 17.4706 21.5 12.5 21.5C7.52944 21.5 3.5 17.4706 3.5 12.5C3.5 7.52944 7.52944 3.5 12.5 3.5C17.4706 3.5 21.5 7.52944 21.5 12.5ZM12.5 15.5C13.0523 15.5 13.5 15.9477 13.5 16.5V17.5C13.5 18.0523 13.0523 18.5 12.5 18.5C11.9477 18.5 11.5 18.0523 11.5 17.5V16.5C11.5 15.9477 11.9477 15.5 12.5 15.5ZM10.5 10.5C10.5 9.39543 11.3954 8.5 12.5 8.5C13.6046 8.5 14.5 9.39543 14.5 10.5C14.5 11.6046 13.6046 12.5 12.5 12.5C11.9477 12.5 11.5 12.9477 11.5 13.5C11.5 14.0523 11.9477 14.5 12.5 14.5C14.7091 14.5 16.5 12.7091 16.5 10.5C16.5 8.29086 14.7091 6.5 12.5 6.5C10.2909 6.5 8.5 8.29086 8.5 10.5C8.5 11.0523 8.94772 11.5 9.5 11.5C10.0523 11.5 10.5 11.0523 10.5 10.5Z" fill="white"/>
</g>
</svg>
