<svg width="24" height="25" viewBox="0 0 24 25" fill="none" xmlns="http://www.w3.org/2000/svg">
<g id="Icon / Filled/write">
<path id="Vector" fill-rule="evenodd" clip-rule="evenodd" d="M6 13.9143V15.5001C6 16.0524 6.44772 16.5001 7 16.5001H8.58579C8.851 16.5001 9.10536 16.3947 9.29289 16.2072L17.2929 8.2072C17.6834 7.81667 17.6834 7.18351 17.2929 6.79299L15.7071 5.2072C15.3166 4.81668 14.6834 4.81668 14.2929 5.2072L6.29289 13.2072C6.10536 13.3947 6 13.6491 6 13.9143ZM4 19.5001C3.44772 19.5001 3 19.9478 3 20.5001C3 21.0524 3.44772 21.5001 4 21.5001H20C20.5523 21.5001 21 21.0524 21 20.5001C21 19.9478 20.5523 19.5001 20 19.5001H4Z" fill="white"/>
</g>
</svg>
