<svg viewBox="0 0 60 60" fill="none" xmlns="http://www.w3.org/2000/svg">
  <g id="data_svgrepo.com">
    <g id="System / Data">
      <path id="Vector"
        d="M45 30V42.5C45 46.6423 38.2842 50 30 50C21.7157 50 15 46.6423 15 42.5V30M45 30V17.5M45 30C45 34.1423 38.2842 37.5 30 37.5C21.7157 37.5 15 34.1423 15 30M15 30V17.5M45 17.5C45 13.3579 38.2842 10 30 10C21.7157 10 15 13.3579 15 17.5M45 17.5C45 21.6421 38.2842 25 30 25C21.7157 25 15 21.6421 15 17.5"
        stroke="url(#paint0_linear_19_163)" stroke-width="5" stroke-linecap="round" stroke-linejoin="round" />
    </g>
  </g>
  <defs>
    <linearGradient id="paint0_linear_19_163" x1="45" y1="10" x2="12.8686" y2="11.7925" gradientUnits="userSpaceOnUse">
      <stop stop-color="#3345D3" />
      <stop offset="1" stop-color="#888DFF" />
    </linearGradient>
  </defs>
</svg>