<svg viewBox="0 0 31 31" fill="none" xmlns="http://www.w3.org/2000/svg">
  <g id="Icon / Filled/book-open">
    <path id="Vector" fill-rule="evenodd" clip-rule="evenodd"
      d="M28.2666 7.61067C27.6634 7.07346 25.2876 5.16669 21.9585 5.16669C19.5206 5.16669 17.5939 6.18923 16.5002 6.94766L16.5002 25.031C17.5939 24.2726 19.5206 23.25 21.9585 23.25C24.4446 23.25 26.399 24.3133 27.4806 25.0756C27.8447 25.3322 28.4168 25.0717 28.4168 24.6262V7.95713C28.4168 7.82452 28.3657 7.69886 28.2666 7.61067ZM14.5002 25.031L14.5002 6.94766C13.4064 6.18923 11.4798 5.16669 9.04183 5.16669C5.7127 5.16669 3.33695 7.07346 2.73368 7.61067C2.63464 7.69886 2.5835 7.82452 2.5835 7.95713V24.6262C2.5835 25.0717 3.15559 25.3322 3.51971 25.0756C4.60137 24.3133 6.55577 23.25 9.04183 23.25C11.4798 23.25 13.4064 24.2726 14.5002 25.031Z"
      fill="#1F2025" />
  </g>
</svg>