<svg width="201" height="48" viewBox="0 0 201 48" fill="none" xmlns="http://www.w3.org/2000/svg">
  <path
    d="M26.6639 40.6624L23.6462 31.3158H10.2241L7.25148 40.6624H0L12.6563 4.06189H21.5293L34.0505 40.6624H26.6639ZM17.0252 10.3512H16.755L11.9357 25.3758H21.8896L17.0252 10.3512Z"
    fill="#090A17" />
  <path
    d="M35.3567 40.6624V35.1156H40.3111V9.65242H35.3567V4.10556H52.472V9.65242H47.4275V35.1156H52.472V40.6624H35.3567Z"
    fill="#090A17" />
  <path
    d="M78.2802 27.0355C75.758 27.0355 73.551 26.5551 71.6143 25.5505C69.6775 24.546 68.1912 23.1046 67.0652 21.2702C65.9842 19.3922 65.3987 17.2084 65.3987 14.6315C65.3987 12.0546 65.9392 9.87079 67.0201 8.0364C68.1011 6.202 69.6325 4.76069 71.5692 3.79982C73.506 2.83894 75.758 2.31483 78.2802 2.31483C80.5322 2.31483 82.6041 2.70792 84.4057 3.53776C86.2073 4.36761 87.6937 5.54686 88.8197 7.07552H99.4042V0H105.845V34.6788H99.4042V22.3621H88.6846C87.5135 23.8471 86.0722 25.0264 84.2706 25.8126C82.469 26.5987 80.4872 27.0355 78.2802 27.0355ZM78.2802 22.0127C80.1269 22.0127 81.6132 21.4886 82.6942 20.3967C83.8202 19.3485 84.3607 17.8635 84.3607 16.0291V13.2338C84.3607 11.3995 83.8202 9.91447 82.6942 8.86624C81.5682 7.81802 80.0818 7.2939 78.2802 7.2939C76.4786 7.2939 74.9022 7.81802 73.7762 8.86624C72.6502 9.91447 72.1097 11.3558 72.1097 13.2338V16.0291C72.1097 17.8635 72.6502 19.3485 73.7762 20.3967C74.9022 21.445 76.3885 22.0127 78.2802 22.0127ZM106.746 42.1037V47.2575H78.7306C75.9832 47.2575 74.632 45.9472 74.632 43.283V30.9663H81.1178V42.1474H106.746V42.1037ZM90.8465 12.1419C90.9816 12.8408 91.0717 13.6706 91.0717 14.6752C91.0717 15.374 90.9816 16.2912 90.8465 17.3831H99.4042V12.1419H90.8465Z"
    fill="#090A17" />
  <path
    d="M154.579 28.2584H135.481V48H129.041V28.2584H110.034V23.0173H140.391C141.472 18.0382 142.102 12.7971 142.238 7.20656H115.754V1.92175H148.543V5.59054C148.543 11.5742 147.958 17.3394 146.832 22.9736H154.579V28.2147V28.2584Z"
    fill="#090A17" />
  <path
    d="M200.069 35.9454V41.1865H155.524V35.9454H174.531V24.939H181.017V35.9454H200.024H200.069ZM160.839 26.0746L157.236 21.1829C161.695 19.1738 165.208 17.2957 167.775 15.4613C170.343 13.6269 172.144 11.8362 173.27 10.0018C174.396 8.16742 174.937 6.11464 174.937 3.88716V1.79071H181.648V4.10554C181.648 8.16742 180.522 11.6178 178.315 14.4131L178.675 14.6315L180.792 13.1028C181.513 12.5787 182.233 12.3166 182.909 12.3166C183.494 12.3166 184.125 12.535 184.846 12.9281L198.448 20.9645L194.755 25.8999L179.621 16.4659C179.081 16.1601 178.54 15.9854 177.955 15.9854C177.504 15.9854 177.009 16.1165 176.513 16.4222C174.892 17.9945 172.82 19.5669 170.298 21.0955C167.775 22.6242 164.623 24.2839 160.884 26.0746H160.839Z"
    fill="#090A17" />
</svg>