<svg width="137" height="49" viewBox="0 0 137 49" fill="none" xmlns="http://www.w3.org/2000/svg">
  <path
    d="M25.9883 18.7807C25.9883 23.9782 24.8172 27.9527 22.4301 30.6169C20.043 33.2812 16.9352 34.6351 13.0167 34.6351C9.09815 34.6351 5.94533 33.2812 3.55819 30.6169C1.17105 27.9527 0 23.9782 0 18.7807C0 13.5833 1.17105 9.56506 3.55819 6.90082C5.94533 4.23658 9.09815 2.88262 13.0167 2.88262C16.9352 2.88262 20.088 4.23658 22.4301 6.90082C24.7722 9.56506 25.9883 13.5396 25.9883 18.7807ZM19.1872 15.7234C19.1872 13.2775 18.6467 11.3995 17.5207 10.0892C16.3947 8.77889 14.9084 8.12375 13.0167 8.12375C11.125 8.12375 9.63864 8.77889 8.51263 10.0892C7.38662 11.3995 6.80109 13.2775 6.80109 15.7234V21.7944C6.80109 24.2402 7.38662 26.1183 8.51263 27.4286C9.63864 28.7389 11.17 29.394 13.0167 29.394C14.8633 29.394 16.3947 28.7389 17.5207 27.4286C18.6467 26.1183 19.1872 24.2402 19.1872 21.7944V15.7234ZM45.8961 22.3621H38.5545V46.253H32.1138V0H38.5545V17.121H45.8961V22.3621Z"
    fill="#090A17" />
  <path
    d="M90.0807 31.8835H71.0737V48.0437H64.5878V31.8835H45.5808V26.6424H90.1257V31.8835H90.0807ZM51.1208 11.6178C51.1208 9.43404 51.7513 7.51229 52.9674 5.8526C54.1835 4.19291 56.0752 2.83895 58.5524 1.87808C61.0297 0.917204 64.1374 0.436768 67.8307 0.436768C71.5241 0.436768 74.5868 0.917204 77.1091 1.87808C79.6313 2.83895 81.478 4.14923 82.6941 5.8526C83.9102 7.55597 84.5407 9.43404 84.5407 11.6178C84.5407 13.8016 83.9102 15.7671 82.6941 17.4704C81.478 19.1738 79.5863 20.4841 77.1091 21.445C74.5868 22.4058 71.5241 22.8863 67.8307 22.8863C64.1374 22.8863 61.0747 22.4058 58.5524 21.445C56.0302 20.4841 54.1835 19.1738 52.9674 17.4704C51.7513 15.7671 51.1208 13.8453 51.1208 11.6178ZM58.102 12.142C58.102 13.8453 58.9128 15.243 60.5342 16.2912C62.1557 17.3394 64.5878 17.9072 67.8307 17.9072C71.0737 17.9072 73.5058 17.3831 75.1723 16.2912C76.7938 15.243 77.6495 13.8453 77.6495 12.142V11.0937C77.6495 9.39036 76.8388 7.99273 75.1723 6.9445C73.5509 5.89628 71.0737 5.32849 67.8307 5.32849C64.5878 5.32849 62.2007 5.8526 60.5792 6.9445C58.9578 7.99273 58.102 9.39036 58.102 11.0937V12.142Z"
    fill="#090A17" />
  <path
    d="M119.087 28.7389L119.898 33.7616C116.835 34.2857 113.637 34.6788 110.304 34.9409C106.971 35.2029 102.917 35.3339 98.098 35.3339H92.8733V3.36306H115.619V8.51683H99.224V16.2912H114.943V21.3576H99.224V30.2675C106.926 30.2675 113.547 29.7434 119.042 28.7389H119.087ZM136.923 22.4058H129.581V46.2966H123.14V0H129.581V17.121H136.923V22.3621V22.4058Z"
    fill="#090A17" />
</svg>