<svg width="1498" height="119" viewBox="0 0 1498 119" fill="none" xmlns="http://www.w3.org/2000/svg">
<path d="M73.19 108.303H58.24L30.29 43.5629V108.303H9.75V5.99292H30.29L65.65 87.8929L101.14 5.99292H121.68V108.303H101.14V43.5629L73.19 108.303ZM135.296 108.303L172.996 5.99292H195.486L233.186 108.303H212.776L201.076 75.4129L163.766 85.5529L155.706 108.303H135.296ZM170.006 68.2629L196.006 61.2429L184.176 28.2229L170.006 68.2629ZM306.457 108.303L266.677 61.6329V108.303H246.137V5.99292H266.677V48.3729L306.067 5.99292H329.597L284.227 55.0029L329.987 108.303H306.457ZM416.724 48.1129V63.9729H363.034V92.5729H420.494V108.303H342.494V5.99292H419.194V21.8529H363.034V48.1129H416.724Z" fill="black"/>
<path d="M551.85 109.003H511.35V105.853L523.05 104.053L509.85 69.5529H476.1L463.5 101.503L476.85 105.403V109.003H445.5V105.403L456.9 101.503L493.8 8.80292H501.15L540.3 104.053L551.85 105.403V109.003ZM507.6 64.0029L492.9 27.5529L478.2 64.0029H507.6Z" fill="black"/>
<path d="M578.75 5.99292H625.03C631.66 5.99292 637.77 7.29292 643.36 9.89293C648.82 12.4929 653.63 16.1329 657.66 20.5529C661.56 25.2329 664.55 30.5629 666.89 36.8029C668.97 43.0429 670.14 49.8029 670.14 56.9529C670.14 64.4929 668.97 71.2529 666.76 77.4929C664.42 83.8629 661.17 89.3229 657.01 93.7429C652.59 98.2929 647.39 101.933 641.28 104.533C635.04 107.003 627.89 108.303 620.09 108.303H578.75V5.99292ZM599.29 92.4429H618.53C623.6 92.4429 628.15 91.5329 632.05 89.7129C635.82 87.8929 639.07 85.4229 641.67 82.1729C644.27 79.0529 646.22 75.2829 647.65 70.8629C648.95 66.5729 649.6 61.7629 649.6 56.5629C649.6 51.4929 648.82 46.8129 647.39 42.5229C645.83 38.3629 643.75 34.5929 640.89 31.4729C638.03 28.4829 634.52 26.1429 630.49 24.3229C626.33 22.7629 621.65 21.8529 616.45 21.8529H599.29V92.4429ZM706.296 5.99292V108.303H685.756V5.99292H706.296ZM799.357 48.1129V63.9729H745.667V108.303H725.127V5.99292H801.827V21.8529H745.667V48.1129H799.357ZM888.351 48.1129V63.9729H834.661V108.303H814.121V5.99292H890.821V21.8529H834.661V48.1129H888.351ZM977.345 48.1129V63.9729H923.655V92.5729H981.115V108.303H903.115V5.99292H979.815V21.8529H923.655V48.1129H977.345ZM997.314 5.99292H1052.17C1056.59 5.99292 1060.62 6.64292 1064.52 7.81292C1068.29 9.11292 1071.67 10.9329 1074.53 13.2729C1077.39 15.8729 1079.6 18.9929 1081.29 22.6329C1082.85 26.5329 1083.63 30.9529 1083.63 36.0229C1083.63 43.3029 1082.07 49.0229 1079.08 53.0529C1075.96 57.2129 1071.67 60.3329 1066.34 62.4129L1089.09 108.303H1067.9L1047.62 67.4829L1017.85 74.5029V108.303H997.314V5.99292ZM1063.22 36.0229C1063.22 31.4729 1061.79 27.9629 1059.19 25.4929C1056.33 23.1529 1052.82 21.8529 1048.53 21.8529H1017.85V57.3429L1046.32 51.4929C1051.78 50.5829 1055.94 48.7629 1058.93 46.1629C1061.79 43.6929 1063.22 40.3129 1063.22 36.0229ZM1176.15 48.1129V63.9729H1122.46V92.5729H1179.92V108.303H1101.92V5.99292H1178.62V21.8529H1122.46V48.1129H1176.15ZM1196.12 5.99292H1216.53L1264.63 79.9629V5.99292H1285.17V108.303H1264.63L1216.66 34.7229V108.303H1196.12V5.99292ZM1298.13 57.0829C1298.13 49.4129 1299.43 42.2629 1302.03 35.6329C1304.63 29.1329 1308.27 23.4129 1313.08 18.4729C1317.76 13.7929 1323.35 10.0229 1330.11 7.29292C1336.74 4.69292 1344.15 3.26293 1352.21 3.26293C1371.58 3.26293 1387.18 11.7129 1399.01 28.3529L1385.88 38.6229C1382.5 32.6429 1377.95 27.8329 1372.1 24.1929C1366.12 20.8129 1359.62 18.9929 1352.47 18.9929C1347.53 18.9929 1342.98 20.0329 1338.82 21.9829C1334.66 24.0629 1331.02 26.7929 1328.16 30.1729C1325.04 33.6829 1322.7 37.7129 1321.14 42.2629C1319.45 46.9429 1318.67 51.8829 1318.67 57.0829C1318.67 62.5429 1319.45 67.4829 1321.27 72.0329C1322.96 76.7129 1325.43 80.7429 1328.68 84.1229C1331.8 87.6329 1335.7 90.3629 1340.12 92.1829C1344.54 94.1329 1349.48 95.1729 1354.94 95.1729C1358.32 95.1729 1361.44 94.6529 1364.56 93.6129C1367.55 92.5729 1370.41 91.1429 1373.14 89.3229C1375.74 87.5029 1378.08 85.4229 1380.42 82.8229C1382.63 80.4829 1384.58 77.7529 1386.4 74.8929L1399.4 85.8129C1393.68 94.0029 1386.92 100.243 1379.38 104.533C1371.71 108.693 1362.61 110.903 1352.21 110.903C1344.54 110.903 1337.39 109.603 1330.89 107.133C1324.26 104.533 1318.54 101.023 1313.73 96.3429C1308.79 91.6629 1305.02 86.0729 1302.29 79.3129C1299.43 72.8129 1298.13 65.4029 1298.13 57.0829ZM1486.81 48.1129V63.9729H1433.12V92.5729H1490.58V108.303H1412.58V5.99292H1489.28V21.8529H1433.12V48.1129H1486.81Z" fill="black"/>
</svg>
